<mxfile host="Electron" agent="Mozilla/5.0 (Windows NT 10.0; Win64; x64) AppleWebKit/537.36 (KHTML, like Gecko) draw.io/28.1.2 Chrome/138.0.7204.243 Electron/37.4.0 Safari/537.36" version="28.1.2" pages="2">
  <diagram name="Gmail - Use Cases" id="sMMjURSvRcraKmAr_0x2">
    <mxGraphModel dx="1103" dy="727" grid="1" gridSize="10" guides="1" tooltips="1" connect="1" arrows="1" fold="1" page="1" pageScale="1" pageWidth="850" pageHeight="1100" math="0" shadow="0">
      <root>
        <mxCell id="0" />
        <mxCell id="1" parent="0" />
        <mxCell id="c_KtkY77ZZmK-J9CgblS-4" value="" style="rounded=0;whiteSpace=wrap;html=1;" parent="1" vertex="1">
          <mxGeometry x="225" y="15" width="815" height="600" as="geometry" />
        </mxCell>
        <mxCell id="c_KtkY77ZZmK-J9CgblS-5" value="Hospital Reception System" style="text;html=1;align=center;verticalAlign=middle;whiteSpace=wrap;rounded=0;" parent="1" vertex="1">
          <mxGeometry x="560" y="30" width="170" height="30" as="geometry" />
        </mxCell>
        <mxCell id="c_KtkY77ZZmK-J9CgblS-6" value="Receptionist" style="shape=umlActor;verticalLabelPosition=bottom;verticalAlign=top;html=1;outlineConnect=0;" parent="1" vertex="1">
          <mxGeometry x="100" y="220" width="30" height="60" as="geometry" />
        </mxCell>
        <mxCell id="c_KtkY77ZZmK-J9CgblS-8" value="Schedule Appointment" style="ellipse;whiteSpace=wrap;html=1;" parent="1" vertex="1">
          <mxGeometry x="310" y="80" width="190" height="70" as="geometry" />
        </mxCell>
        <mxCell id="c_KtkY77ZZmK-J9CgblS-9" value="Schedule Admission" style="ellipse;whiteSpace=wrap;html=1;" parent="1" vertex="1">
          <mxGeometry x="320" y="330" width="190" height="70" as="geometry" />
        </mxCell>
        <mxCell id="c_KtkY77ZZmK-J9CgblS-10" value="Collect Information" style="ellipse;whiteSpace=wrap;html=1;" parent="1" vertex="1">
          <mxGeometry x="310" y="200" width="190" height="70" as="geometry" />
        </mxCell>
        <mxCell id="c_KtkY77ZZmK-J9CgblS-11" value="Register Patient" style="ellipse;whiteSpace=wrap;html=1;" parent="1" vertex="1">
          <mxGeometry x="610" y="100" width="190" height="70" as="geometry" />
        </mxCell>
        <mxCell id="c_KtkY77ZZmK-J9CgblS-12" value="Inpatient Admission" style="ellipse;whiteSpace=wrap;html=1;" parent="1" vertex="1">
          <mxGeometry x="390" y="500" width="190" height="70" as="geometry" />
        </mxCell>
        <mxCell id="c_KtkY77ZZmK-J9CgblS-13" value="Out patient Admission" style="ellipse;whiteSpace=wrap;html=1;" parent="1" vertex="1">
          <mxGeometry x="800" y="190" width="190" height="70" as="geometry" />
        </mxCell>
        <mxCell id="c_KtkY77ZZmK-J9CgblS-14" value="Assign Bed" style="ellipse;whiteSpace=wrap;html=1;" parent="1" vertex="1">
          <mxGeometry x="820" y="300" width="190" height="70" as="geometry" />
        </mxCell>
        <mxCell id="c_KtkY77ZZmK-J9CgblS-15" value="File Insurance Claim" style="ellipse;whiteSpace=wrap;html=1;" parent="1" vertex="1">
          <mxGeometry x="810" y="410" width="190" height="70" as="geometry" />
        </mxCell>
        <mxCell id="c_KtkY77ZZmK-J9CgblS-16" value="File Medical Report" style="ellipse;whiteSpace=wrap;html=1;" parent="1" vertex="1">
          <mxGeometry x="830" y="510" width="190" height="70" as="geometry" />
        </mxCell>
        <mxCell id="c_KtkY77ZZmK-J9CgblS-17" value="&amp;lt;&amp;lt;include&amp;gt;&amp;gt;" style="html=1;verticalAlign=bottom;labelBackgroundColor=none;endArrow=open;endFill=0;dashed=1;rounded=0;" parent="1" source="c_KtkY77ZZmK-J9CgblS-9" target="c_KtkY77ZZmK-J9CgblS-11" edge="1">
          <mxGeometry width="160" relative="1" as="geometry">
            <mxPoint x="250" y="390" as="sourcePoint" />
            <mxPoint x="410" y="390" as="targetPoint" />
          </mxGeometry>
        </mxCell>
        <mxCell id="c_KtkY77ZZmK-J9CgblS-19" value="" style="endArrow=block;html=1;rounded=0;endFill=0;" parent="1" source="c_KtkY77ZZmK-J9CgblS-12" target="c_KtkY77ZZmK-J9CgblS-9" edge="1">
          <mxGeometry width="50" height="50" relative="1" as="geometry">
            <mxPoint x="300" y="420" as="sourcePoint" />
            <mxPoint x="350" y="370" as="targetPoint" />
          </mxGeometry>
        </mxCell>
        <mxCell id="c_KtkY77ZZmK-J9CgblS-20" value="" style="endArrow=block;html=1;rounded=0;entryX=0.911;entryY=0.729;entryDx=0;entryDy=0;entryPerimeter=0;endFill=0;" parent="1" source="c_KtkY77ZZmK-J9CgblS-13" target="c_KtkY77ZZmK-J9CgblS-9" edge="1">
          <mxGeometry width="50" height="50" relative="1" as="geometry">
            <mxPoint x="702" y="340" as="sourcePoint" />
            <mxPoint x="560" y="398" as="targetPoint" />
          </mxGeometry>
        </mxCell>
        <mxCell id="c_KtkY77ZZmK-J9CgblS-21" value="&amp;lt;&amp;lt;include&amp;gt;&amp;gt;" style="html=1;verticalAlign=bottom;labelBackgroundColor=none;endArrow=open;endFill=0;dashed=1;rounded=0;exitX=0.5;exitY=0;exitDx=0;exitDy=0;" parent="1" source="c_KtkY77ZZmK-J9CgblS-12" target="c_KtkY77ZZmK-J9CgblS-14" edge="1">
          <mxGeometry width="160" relative="1" as="geometry">
            <mxPoint x="413" y="460" as="sourcePoint" />
            <mxPoint x="370" y="551" as="targetPoint" />
          </mxGeometry>
        </mxCell>
        <mxCell id="c_KtkY77ZZmK-J9CgblS-22" value="&amp;lt;&amp;lt;exclude&amp;gt;&amp;gt;" style="html=1;verticalAlign=bottom;labelBackgroundColor=none;endArrow=open;endFill=0;dashed=1;rounded=0;entryX=1;entryY=1;entryDx=0;entryDy=0;exitX=0.5;exitY=0;exitDx=0;exitDy=0;" parent="1" source="c_KtkY77ZZmK-J9CgblS-16" target="c_KtkY77ZZmK-J9CgblS-12" edge="1">
          <mxGeometry width="160" relative="1" as="geometry">
            <mxPoint x="483" y="510" as="sourcePoint" />
            <mxPoint x="440" y="601" as="targetPoint" />
          </mxGeometry>
        </mxCell>
        <mxCell id="c_KtkY77ZZmK-J9CgblS-23" value="&amp;lt;&amp;lt;exclude&amp;gt;&amp;gt;" style="html=1;verticalAlign=bottom;labelBackgroundColor=none;endArrow=open;endFill=0;dashed=1;rounded=0;entryX=1;entryY=0.5;entryDx=0;entryDy=0;" parent="1" source="c_KtkY77ZZmK-J9CgblS-15" target="c_KtkY77ZZmK-J9CgblS-12" edge="1">
          <mxGeometry width="160" relative="1" as="geometry">
            <mxPoint x="540" y="840" as="sourcePoint" />
            <mxPoint x="780" y="510" as="targetPoint" />
          </mxGeometry>
        </mxCell>
        <mxCell id="c_KtkY77ZZmK-J9CgblS-24" value="" style="endArrow=none;html=1;rounded=0;entryX=0;entryY=0.5;entryDx=0;entryDy=0;" parent="1" target="c_KtkY77ZZmK-J9CgblS-8" edge="1">
          <mxGeometry width="50" height="50" relative="1" as="geometry">
            <mxPoint x="140" y="250" as="sourcePoint" />
            <mxPoint x="170" y="110" as="targetPoint" />
          </mxGeometry>
        </mxCell>
        <mxCell id="c_KtkY77ZZmK-J9CgblS-25" value="" style="endArrow=none;html=1;rounded=0;entryX=0;entryY=0.5;entryDx=0;entryDy=0;" parent="1" target="c_KtkY77ZZmK-J9CgblS-9" edge="1">
          <mxGeometry width="50" height="50" relative="1" as="geometry">
            <mxPoint x="140" y="260" as="sourcePoint" />
            <mxPoint x="380" y="260" as="targetPoint" />
          </mxGeometry>
        </mxCell>
        <mxCell id="c_KtkY77ZZmK-J9CgblS-26" value="&amp;lt;&amp;lt;exclude&amp;gt;&amp;gt;" style="html=1;verticalAlign=bottom;labelBackgroundColor=none;endArrow=open;endFill=0;dashed=1;rounded=0;entryX=0.468;entryY=0.957;entryDx=0;entryDy=0;entryPerimeter=0;exitX=0.5;exitY=0;exitDx=0;exitDy=0;" parent="1" source="c_KtkY77ZZmK-J9CgblS-10" target="c_KtkY77ZZmK-J9CgblS-8" edge="1">
          <mxGeometry width="160" relative="1" as="geometry">
            <mxPoint x="857" y="300" as="sourcePoint" />
            <mxPoint x="780" y="320" as="targetPoint" />
          </mxGeometry>
        </mxCell>
        <mxCell id="c_KtkY77ZZmK-J9CgblS-27" value="&amp;lt;&amp;lt;exclude&amp;gt;&amp;gt;" style="html=1;verticalAlign=bottom;labelBackgroundColor=none;endArrow=open;endFill=0;dashed=1;rounded=0;entryX=0.5;entryY=0;entryDx=0;entryDy=0;exitX=0.5;exitY=1;exitDx=0;exitDy=0;" parent="1" source="c_KtkY77ZZmK-J9CgblS-10" target="c_KtkY77ZZmK-J9CgblS-9" edge="1">
          <mxGeometry width="160" relative="1" as="geometry">
            <mxPoint x="486" y="306.5" as="sourcePoint" />
            <mxPoint x="480" y="243.5" as="targetPoint" />
          </mxGeometry>
        </mxCell>
        <mxCell id="c_KtkY77ZZmK-J9CgblS-28" value="" style="endArrow=none;html=1;rounded=0;entryX=0;entryY=0.5;entryDx=0;entryDy=0;" parent="1" target="c_KtkY77ZZmK-J9CgblS-10" edge="1">
          <mxGeometry width="50" height="50" relative="1" as="geometry">
            <mxPoint x="150" y="250" as="sourcePoint" />
            <mxPoint x="410" y="220" as="targetPoint" />
          </mxGeometry>
        </mxCell>
      </root>
    </mxGraphModel>
  </diagram>
  <diagram name="Hospital - Reception" id="FikDlIBmy7CB5HOo17jk">
    <mxGraphModel dx="1178" dy="646" grid="1" gridSize="10" guides="1" tooltips="1" connect="1" arrows="1" fold="1" page="1" pageScale="1" pageWidth="827" pageHeight="1169">
      <root>
        <mxCell id="0" />
        <mxCell id="1" parent="0" />
        <!-- Actors -->
        <mxCell id="a-receptionist" value="Receptionist" style="shape=umlActor;verticalLabelPosition=bottom;verticalAlign=top;html=1;" vertex="1" parent="1">
          <mxGeometry x="40" y="40" width="40" height="80" as="geometry" />
        </mxCell>
        <mxCell id="a-patient" value="Patient" style="shape=umlActor;verticalLabelPosition=bottom;verticalAlign=top;html=1;" vertex="1" parent="1">
          <mxGeometry x="40" y="160" width="40" height="80" as="geometry" />
        </mxCell>
        <mxCell id="a-insurer" value="Insurance Provider" style="shape=umlActor;verticalLabelPosition=bottom;verticalAlign=top;html=1;" vertex="1" parent="1">
          <mxGeometry x="40" y="280" width="40" height="80" as="geometry" />
        </mxCell>
        <mxCell id="a-ward" value="Ward / Bed Mgmt" style="shape=umlActor;verticalLabelPosition=bottom;verticalAlign=top;html=1;" vertex="1" parent="1">
          <mxGeometry x="40" y="400" width="40" height="80" as="geometry" />
        </mxCell>
        <!-- Use cases -->
        <mxCell id="uc-schedule-appt" value="Schedule Appointment" style="ellipse;whiteSpace=wrap;html=1;" vertex="1" parent="1">
          <mxGeometry x="160" y="20" width="170" height="50" as="geometry" />
        </mxCell>
        <mxCell id="uc-schedule-adm" value="Schedule Admission" style="ellipse;whiteSpace=wrap;html=1;" vertex="1" parent="1">
          <mxGeometry x="360" y="20" width="170" height="50" as="geometry" />
        </mxCell>
        <mxCell id="uc-collect-info" value="Collect Patient Info" style="ellipse;whiteSpace=wrap;html=1;" vertex="1" parent="1">
          <mxGeometry x="160" y="100" width="170" height="50" as="geometry" />
        </mxCell>
        <mxCell id="uc-register" value="Patient Registration" style="ellipse;whiteSpace=wrap;html=1;" vertex="1" parent="1">
          <mxGeometry x="360" y="100" width="170" height="50" as="geometry" />
        </mxCell>
        <mxCell id="uc-admit" value="Admit Patient" style="ellipse;whiteSpace=wrap;html=1;" vertex="1" parent="1">
          <mxGeometry x="160" y="180" width="170" height="50" as="geometry" />
        </mxCell>
        <mxCell id="uc-assign-bed" value="Assign Bed" style="ellipse;whiteSpace=wrap;html=1;" vertex="1" parent="1">
          <mxGeometry x="360" y="180" width="150" height="50" as="geometry" />
        </mxCell>
        <mxCell id="uc-file-claim" value="File Insurance Claim" style="ellipse;whiteSpace=wrap;html=1;" vertex="1" parent="1">
          <mxGeometry x="160" y="260" width="170" height="50" as="geometry" />
        </mxCell>
        <mxCell id="uc-file-report" value="File Medical Report" style="ellipse;whiteSpace=wrap;html=1;" vertex="1" parent="1">
          <mxGeometry x="360" y="260" width="170" height="50" as="geometry" />
        </mxCell>
        <!-- Edges: actors to use cases -->
        <mxCell id="e-patient-appt" style="edgeStyle=orthogonalEdgeStyle;rounded=0;" edge="1" parent="1" source="a-patient" target="uc-schedule-appt">
          <mxGeometry relative="1" as="geometry" />
        </mxCell>
        <mxCell id="e-recep-appt" style="edgeStyle=orthogonalEdgeStyle;rounded=0;" edge="1" parent="1" source="a-receptionist" target="uc-schedule-appt">
          <mxGeometry relative="1" as="geometry" />
        </mxCell>
        <mxCell id="e-recep-adm" style="edgeStyle=orthogonalEdgeStyle;rounded=0;" edge="1" parent="1" source="a-receptionist" target="uc-schedule-adm">
          <mxGeometry relative="1" as="geometry" />
        </mxCell>
        <mxCell id="e-recep-collect" style="edgeStyle=orthogonalEdgeStyle;rounded=0;" edge="1" parent="1" source="a-receptionist" target="uc-collect-info">
          <mxGeometry relative="1" as="geometry" />
        </mxCell>
        <mxCell id="e-recep-register" style="edgeStyle=orthogonalEdgeStyle;rounded=0;" edge="1" parent="1" source="a-receptionist" target="uc-register">
          <mxGeometry relative="1" as="geometry" />
        </mxCell>
        <mxCell id="e-recep-admit" style="edgeStyle=orthogonalEdgeStyle;rounded=0;" edge="1" parent="1" source="a-receptionist" target="uc-admit">
          <mxGeometry relative="1" as="geometry" />
        </mxCell>
        <mxCell id="e-ward-assign" style="edgeStyle=orthogonalEdgeStyle;rounded=0;" edge="1" parent="1" source="a-ward" target="uc-assign-bed">
          <mxGeometry relative="1" as="geometry" />
        </mxCell>
        <mxCell id="e-recep-assign" style="edgeStyle=orthogonalEdgeStyle;rounded=0;" edge="1" parent="1" source="a-receptionist" target="uc-assign-bed">
          <mxGeometry relative="1" as="geometry" />
        </mxCell>
        <mxCell id="e-recep-claim" style="edgeStyle=orthogonalEdgeStyle;rounded=0;" edge="1" parent="1" source="a-receptionist" target="uc-file-claim">
          <mxGeometry relative="1" as="geometry" />
        </mxCell>
        <mxCell id="e-insurer-claim" style="edgeStyle=orthogonalEdgeStyle;rounded=0;" edge="1" parent="1" source="a-insurer" target="uc-file-claim">
          <mxGeometry relative="1" as="geometry" />
        </mxCell>
        <mxCell id="e-recep-report" style="edgeStyle=orthogonalEdgeStyle;rounded=0;" edge="1" parent="1" source="a-receptionist" target="uc-file-report">
          <mxGeometry relative="1" as="geometry" />
        </mxCell>
        <!-- Precondition annotation: Registration -> Admit -->
        <mxCell id="note-precondition" value="Registration is a precondition for Admit" style="text;html=1;strokeColor=none;align=left;verticalAlign=top;fontStyle=2" vertex="1" parent="1">
          <mxGeometry x="160" y="240" width="370" height="30" as="geometry" />
        </mxCell>
      </root>
    </mxGraphModel>
  </diagram>
</mxfile>
